<svg xmlns="http://www.w3.org/2000/svg" viewBox="0 0 24 24" fill="none">
  <title>Brand</title>

  <!-- Base MCP mark (unchanged geometry) -->
  <g fill="currentColor" fill-rule="evenodd" transform="scale(0.90) translate(0 1.2)">
    <path d="M15.688 2.343a2.588 2.588 0 00-3.61 0l-9.626 9.44a.863.863 0 01-1.203 0 .823.823 0 010-1.18l9.626-9.44a4.313 4.313 0 016.016 0 4.116 4.116 0 011.204 3.54 4.3 4.3 0 013.609 1.18l.05.05a4.115 4.115 0 010 5.9l-8.706 8.537a.274.274 0 000 .393l1.788 1.754a.823.823 0 010 1.18.863.863 0 01-1.203 0l-1.788-1.753a1.92 1.92 0 010-2.754l8.706-8.538a2.47 2.47 0 000-3.54l-.05-.049a2.588 2.588 0 00-3.607-.003l-7.172 7.034-.002.002-.098.097a.863.863 0 01-1.204 0 .823.823 0 010-1.18l7.273-7.133a2.47 2.47 0 00-.003-3.537z"></path><path d="M14.485 4.703a.823.823 0 000-1.18.863.863 0 00-1.204 0l-7.119 6.982a4.115 4.115 0 000 5.9 4.314 4.314 0 006.016 0l7.12-6.982a.823.823 0 000-1.18.863.863 0 00-1.204 0l-7.119 6.982a2.588 2.588 0 01-3.61 0 2.47 2.47 0 010-3.54l7.12-6.982z"></path>
  </g>

  <!-- Settings overlay at bottom-right with white edge -->
  <g transform="translate(7.5 24.5) scale(0.018)" aria-label="settings-overlay" fill="currentColor">
    <path d="m370-80-16-128q-13-5-24.5-12T307-235l-119 50L78-375l103-78q-1-7-1-13.5v-27q0-6.5 1-13.5L78-585l110-190 119 50q11-8 23-15t24-12l16-128h220l16 128q13 5 24.5 12t22.5 15l119-50 110 190-103 78q1 7 1 13.5v27q0 6.5-2 13.5l103 78-110 190-118-50q-11 8-23 15t-24 12L590-80H370Zm70-80h79l14-106q31-8 57.5-23.5T639-327l99 41 39-68-86-65q5-14 7-29.5t2-31.5q0-16-2-31.5t-7-29.5l86-65-39-68-99 42q-22-23-48.5-38.5T533-694l-13-106h-79l-14 106q-31 8-57.5 23.5T321-633l-99-41-39 68 86 64q-5 15-7 30t-2 32q0 16 2 31t7 30l-86 65 39 68 99-42q22 23 48.5 38.5T427-266l13 106Zm42-180q58 0 99-41t41-99q0-58-41-99t-99-41q-59 0-99.5 41T342-480q0 58 40.5 99t99.5 41Zm-2-140Z"/>
  </g>
</svg>
